<?xml version="1.0" standalone="no"?>
<!DOCTYPE svg PUBLIC "-//W3C//DTD SVG 20010904//EN"
 "http://www.w3.org/TR/2001/REC-SVG-20010904/DTD/svg10.dtd">
<svg version="1.0" xmlns="http://www.w3.org/2000/svg"
 width="736.000000pt" height="736.000000pt" viewBox="0 0 736.000000 736.000000"
 preserveAspectRatio="xMidYMid meet">

<g transform="translate(0.000000,736.000000) scale(0.100000,-0.100000)"
fill="#000000" stroke="none">
<path d="M3835 7028 c-24 -42 -271 -420 -334 -513 -27 -38 -53 -80 -60 -92
-11 -22 -10 -23 32 -23 l43 0 167 250 c92 138 172 250 177 250 5 0 84 -112
176 -250 l167 -250 38 0 c22 0 39 3 39 6 0 10 -23 49 -95 159 -207 316 -283
433 -300 463 -11 17 -22 32 -25 32 -3 0 -14 -15 -25 -32z"/>
<path d="M3722 6596 c-175 -263 -158 -245 -226 -247 -31 -1 -56 -7 -56 -12 0
-12 119 -200 132 -208 5 -3 28 -2 51 2 82 16 302 21 412 10 106 -11 111 -11
127 9 19 23 118 186 118 195 0 3 -26 5 -57 5 -50 1 -61 4 -76 25 -9 13 -74
109 -144 212 -69 103 -131 193 -137 199 -8 8 -47 -42 -144 -190z"/>
<path d="M7150 6613 c-96 -30 -204 -62 -240 -72 -81 -24 -449 -131 -472 -138
-12 -4 -6 -15 32 -51 52 -50 73 -103 85 -212 l6 -55 -173 -172 -174 -173 -55
0 c-30 0 -60 5 -67 12 -18 18 -14 62 9 92 23 30 90 70 132 80 25 6 27 10 27
52 0 39 -5 51 -32 76 -195 182 -593 88 -808 -192 -68 -88 -140 -251 -140 -316
0 -6 37 26 83 71 94 94 179 144 263 152 51 5 55 4 90 -31 36 -36 37 -38 31
-96 -4 -33 -5 -60 -3 -60 6 0 32 92 46 163 7 35 16 55 22 51 14 -9 4 -139 -12
-159 -12 -14 -8 -15 31 -10 43 6 42 5 -28 -27 -40 -18 -73 -37 -73 -42 0 -4
20 -5 44 -2 51 8 121 -15 137 -45 8 -16 -5 -33 -83 -109 -68 -67 -99 -90 -118
-90 -23 0 -32 -11 -66 -75 -27 -53 -44 -74 -54 -71 -8 2 -42 16 -75 29 -33 14
-71 28 -85 32 l-25 7 24 -25 c20 -22 21 -25 5 -21 -15 4 -27 -9 -54 -53 l-34
-58 -8 40 c-4 22 -8 63 -9 90 -1 28 -5 64 -9 80 l-7 30 -16 -36 -16 -36 -83
-6 c-46 -4 -97 -11 -115 -16 -32 -9 -32 -9 -43 37 -24 102 -25 100 14 50 27
-35 44 -48 63 -48 25 0 26 1 19 48 -3 26 -21 105 -38 176 l-33 129 -70 59
c-223 188 -492 320 -775 380 -91 19 -136 22 -340 22 -206 0 -247 -2 -336 -22
-196 -43 -352 -106 -518 -210 l-98 -62 -67 10 c-72 10 -159 1 -233 -25 -36
-12 -47 -12 -87 2 -101 33 -192 104 -214 166 -9 26 -19 -4 -24 -75 -5 -68 11
-159 42 -239 5 -14 -5 -17 -82 -18 -49 -1 -131 -11 -183 -22 -199 -42 -245
-49 -307 -50 l-63 -1 32 -42 c53 -70 169 -177 246 -227 40 -26 108 -60 152
-76 44 -15 80 -31 80 -36 0 -4 -11 -25 -25 -45 -64 -97 -84 -262 -50 -397 19
-72 72 -187 116 -251 33 -49 108 -128 114 -122 2 2 -1 24 -6 48 -11 50 -4 139
15 185 l13 30 21 -40 c11 -22 29 -49 40 -61 26 -28 107 -94 115 -94 3 0 0 15
-7 33 -14 31 -21 96 -17 147 2 19 11 6 40 -55 21 -44 61 -109 90 -145 44 -55
51 -69 46 -95 -12 -59 -39 -111 -84 -157 l-45 -48 22 -23 c13 -13 50 -39 83
-58 57 -32 59 -36 56 -68 -3 -31 0 -35 35 -50 32 -13 38 -21 38 -46 0 -24 7
-34 37 -50 47 -25 80 -73 100 -148 l16 -57 36 6 c78 13 198 47 284 79 l89 34
24 -26 c13 -14 36 -51 51 -82 25 -50 28 -67 28 -157 l0 -102 50 42 c43 35 47
37 32 13 -10 -15 -15 -27 -13 -27 2 0 66 67 141 149 l136 149 52 -55 c60 -63
62 -62 97 42 21 62 21 63 64 69 52 8 31 -12 436 405 313 322 327 336 347 368
10 16 12 13 12 -21 1 -42 -11 -55 -534 -583 -186 -189 -202 -203 -236 -203
l-35 0 -23 -75 c-13 -42 -27 -78 -32 -81 -11 -7 8 -44 22 -44 21 0 48 46 55
93 l7 47 174 0 175 0 315 320 c238 242 321 320 339 320 23 0 24 2 24 89 l0 89
-75 7 c-42 4 -79 4 -83 0 -4 -4 -7 -18 -7 -32 0 -18 -6 -27 -19 -29 -10 -1
-34 -18 -53 -36 l-34 -33 63 -5 63 -5 3 -40 c2 -24 -3 -48 -12 -60 -14 -19
-15 -17 -16 28 l0 47 -61 0 c-33 0 -69 -5 -80 -11 -11 -5 -95 -88 -187 -182
-92 -95 -215 -222 -274 -283 -60 -60 -108 -114 -108 -120 0 -5 17 -8 38 -6 20
1 57 -1 82 -7 38 -7 28 -9 -69 -10 l-114 -1 19 22 c34 40 274 287 501 518
l223 225 0 69 0 68 33 -6 c17 -3 39 -1 47 4 22 14 -11 70 -81 135 l-58 53 10
69 c26 167 133 286 291 323 69 16 110 13 106 -7 -2 -11 -24 -23 -63 -35 -130
-38 -224 -122 -258 -232 -27 -84 -23 -134 16 -182 18 -22 41 -59 52 -82 20
-41 21 -42 73 -43 28 -1 62 -2 75 -2 22 -1 22 1 25 131 l3 132 139 0 140 0 0
-138 0 -138 -82 0 c-55 0 -83 -4 -86 -12 -2 -7 -17 -19 -34 -28 l-29 -15 3
-95 c2 -52 0 -94 -3 -94 -20 0 -33 40 -36 108 -4 83 0 92 61 140 24 18 41 22
102 22 l74 0 0 110 0 110 -110 0 -110 0 0 -104 c0 -98 -2 -106 -26 -135 -26
-31 -26 -31 -129 -31 -96 0 -130 -9 -110 -28 4 -4 51 -9 106 -10 l99 -4 0
-124 c0 -124 0 -125 -26 -134 -14 -6 -34 -10 -44 -10 -10 0 -145 -128 -326
-310 l-308 -310 -173 0 -173 0 0 -37 c0 -24 -9 -48 -26 -71 l-27 -34 28 -27
c18 -17 29 -22 32 -14 2 7 13 23 24 37 20 25 24 26 117 24 l97 -2 -90 -5 -90
-6 -21 -45 -22 -45 36 -50 c56 -79 51 -76 117 -65 110 19 105 12 105 150 l0
120 -109 0 c-153 0 -152 18 1 22 68 2 126 2 130 0 5 -2 8 -68 8 -147 l0 -144
-32 -5 c-18 -3 -60 -10 -92 -16 -33 -5 -61 -10 -63 -10 -6 0 27 -59 36 -64 5
-4 31 5 57 19 40 21 60 25 133 25 86 0 111 8 111 36 0 8 -17 14 -42 16 l-43 3
-3 155 -2 155 293 298 c162 163 299 297 305 297 6 0 14 -4 17 -10 12 -19 38
-10 91 30 41 31 62 40 93 40 65 0 84 -14 27 -20 l-49 -5 -14 -54 c-7 -29 -24
-81 -38 -114 -13 -34 -22 -63 -20 -66 8 -7 89 89 174 205 34 47 34 47 51 26 9
-11 20 -47 24 -79 18 -145 36 -354 36 -414 l0 -66 233 -6 c127 -4 432 -10 677
-13 l445 -6 90 193 c49 107 127 272 172 367 46 95 83 179 83 188 0 10 -7 13
-22 9 -21 -5 -674 -125 -873 -160 -333 -60 -380 -71 -377 -91 2 -10 7 -22 10
-26 4 -4 168 20 366 52 197 33 367 60 377 60 20 0 26 -33 11 -57 -7 -12 -199
-36 -532 -68 -91 -9 -177 -18 -192 -21 -30 -6 -32 12 28 -203 20 -67 34 -125
31 -127 -2 -2 -12 4 -23 14 -116 104 -217 194 -252 227 -24 22 -50 44 -59 48
-8 5 -53 2 -106 -7 -50 -8 -92 -14 -94 -12 -4 4 56 179 65 188 4 4 53 -36 108
-90 148 -144 297 -282 305 -282 8 0 -4 39 -73 259 -37 116 -46 136 -73 155
-18 11 -49 36 -70 54 l-38 34 33 31 c30 30 32 28 15 -15 -4 -12 72 -75 80 -67
6 7 65 211 65 227 0 11 -8 13 -40 8 -39 -6 -40 -6 -40 24 l0 30 58 -6 57 -7
-29 31 c-23 25 -30 43 -34 87 -4 44 -1 56 12 61 9 3 16 10 16 14 0 5 -28 0
-62 -11 -73 -22 -78 -22 -78 -9 0 5 18 20 40 32 32 18 39 27 35 43 -3 11 -8
54 -11 96 l-7 76 45 5 c61 7 158 65 158 94 0 29 171 199 182 181 16 -25 20
-83 11 -146 -6 -36 -9 -67 -8 -69 6 -7 43 36 49 58 17 57 39 110 47 110 4 0 3
-15 -2 -32 -5 -18 -9 -34 -9 -35 0 -1 24 1 53 4 28 3 68 1 86 -4 33 -9 30 -10
-65 -33 l-99 -24 46 -7 c61 -9 85 -23 104 -59 50 -97 -21 -276 -170 -425 -35
-36 -61 -65 -56 -65 5 0 40 9 77 21 235 72 427 262 510 504 24 71 27 95 28
210 0 113 -2 137 -22 184 -27 64 -72 130 -89 131 -13 0 -43 -36 -84 -103 -37
-61 -88 -88 -126 -67 -15 8 -33 30 -40 48 l-14 34 203 204 c112 113 214 208
227 211 60 15 209 -56 260 -125 11 -15 21 -22 21 -17 0 6 16 69 35 140 79 294
195 760 193 770 -2 7 -72 -10 -178 -42z m66 -50 c-3 -3 -34 -13 -68 -23 l-63
-17 3 -39 c4 -47 26 -74 60 -74 23 0 24 -1 9 -17 -8 -10 -20 -49 -25 -88 l-10
-70 1 76 c1 74 0 77 -30 103 l-31 26 -94 -26 c-51 -14 -118 -34 -148 -43 l-55
-18 -6 -124 c-3 -68 -4 -126 -2 -128 2 -3 66 -7 142 -9 l138 -4 7 68 c4 38 9
94 13 125 l5 56 -38 6 c-22 4 -61 7 -89 7 -36 0 -46 3 -35 10 19 12 150 13
169 1 11 -7 13 -31 7 -125 -6 -106 -5 -117 13 -135 19 -19 18 -19 -38 -20 -31
0 -69 -5 -86 -9 l-30 -9 33 -7 c17 -4 32 -12 32 -16 0 -5 -6 -7 -12 -5 -7 3
-64 11 -127 20 -62 8 -116 17 -119 19 -3 3 -5 45 -5 93 l1 88 -12 -90 c-6 -49
-14 -85 -18 -80 -8 14 -15 331 -6 340 3 4 18 -1 33 -11 23 -15 33 -16 83 -5
89 20 202 53 202 61 0 3 -15 13 -32 22 l-33 15 60 18 c150 44 221 58 201 38z
m-46 -52 c0 -5 -10 -11 -22 -13 -18 -2 -22 -8 -20 -27 2 -15 0 -21 -7 -17 -15
10 -14 53 2 59 21 9 47 7 47 -2z m-530 -121 c0 -5 -9 -10 -20 -10 -11 0 -20 5
-20 10 0 6 9 10 20 10 11 0 20 -4 20 -10z m440 0 c0 -5 -7 -7 -15 -4 -8 4 -15
8 -15 10 0 2 7 4 15 4 8 0 15 -4 15 -10z m-497 -28 c31 -34 47 -90 46 -159
l-2 -68 -12 88 c-10 67 -19 96 -40 122 -27 36 -21 49 8 17z m397 -106 c0 -18
-3 -48 -6 -65 l-6 -31 -73 0 -73 0 9 43 c20 95 13 87 84 87 l65 0 0 -34z
m-916 -180 c56 -17 148 -74 143 -89 -3 -11 -8 -14 -72 -45 -50 -23 -85 -73
-85 -121 0 -27 -3 -32 -10 -21 -37 57 22 155 104 176 38 9 28 24 -36 58 -41
21 -80 31 -144 37 -48 5 -90 11 -92 14 -12 11 149 4 192 -9z m608 -26 c34 -30
28 -37 -15 -21 -29 11 -42 4 -26 -16 6 -7 8 -13 4 -13 -16 0 -85 24 -85 29 0
9 63 50 77 50 7 1 27 -12 45 -29z m-698 -84 l-47 -76 17 -63 c13 -46 28 -73
58 -104 l41 -42 -17 -42 c-10 -24 -17 -72 -18 -112 -1 -61 -3 -67 -15 -51 -19
26 -20 78 -2 145 9 34 7 39 -29 75 -33 33 -41 50 -52 107 -12 66 -12 69 13
117 27 52 87 133 94 126 2 -2 -17 -38 -43 -80z m-1848 40 c101 -22 157 -41
261 -92 104 -51 153 -86 272 -193 46 -42 79 -66 73 -54 -7 12 -18 27 -24 35
-7 7 -20 22 -28 32 -14 18 -14 19 7 8 27 -15 105 -107 128 -151 18 -35 46
-123 41 -128 -1 -2 -31 33 -65 77 -149 189 -338 322 -570 399 -120 40 -137 36
-31 -8 45 -18 79 -35 77 -38 -3 -2 -47 9 -99 25 -51 17 -135 36 -185 42 -106
15 -330 9 -410 -11 l-51 -12 51 -27 c224 -116 517 -388 682 -630 29 -44 7 -25
-108 93 -80 81 -150 147 -156 147 -7 0 -11 -24 -11 -59 0 -67 -4 -64 119 -91
l53 -13 -5 -36 c-4 -20 -9 -60 -13 -89 -5 -43 -9 -50 -20 -41 -9 8 -14 33 -14
75 0 54 -3 64 -17 64 -10 1 -35 7 -55 14 -42 15 -43 14 -28 -17 6 -12 -6 -2
-27 22 -36 41 -38 48 -38 110 l0 66 -47 3 c-45 3 -62 -8 -38 -23 5 -3 15 -16
21 -28 14 -26 22 -32 -117 89 -107 94 -284 214 -409 279 -49 26 -91 48 -93 50
-6 5 166 64 250 86 139 36 252 49 408 44 80 -2 177 -10 216 -19z m2487 -32
c23 -7 22 -24 -1 -24 -29 0 -34 -12 -15 -33 14 -15 15 -19 3 -14 -23 9 -82 25
-114 32 l-29 6 34 25 c34 25 58 26 122 8z m497 -19 c0 -8 -4 -15 -9 -15 -13 0
-22 16 -14 24 11 11 23 6 23 -9z m-149 -7 c34 -11 89 -48 73 -48 -5 0 -24 9
-43 21 -19 11 -61 24 -95 29 -59 7 -60 8 -15 9 25 0 61 -4 80 -11z m-188 -43
c-16 -22 -43 -34 -43 -19 0 8 43 43 53 44 4 0 0 -11 -10 -25z m302 14 c11 -17
-1 -21 -15 -4 -8 9 -8 15 -2 15 6 0 14 -5 17 -11z m-575 -20 c49 -11 69 -29
30 -29 -23 0 -26 -10 -8 -28 16 -16 8 -15 -37 4 -43 18 -55 12 -32 -14 21 -23
22 -39 2 -22 -8 7 -31 18 -51 25 l-36 12 33 32 c39 36 33 34 99 20z m220 -37
c0 -5 -6 -16 -13 -27 -10 -13 -16 -15 -21 -6 -4 6 -2 18 4 26 13 16 30 20 30
7z m-3441 -52 c34 -17 64 -30 66 -30 3 0 45 -25 93 -56 178 -115 345 -263 517
-458 117 -133 146 -183 38 -66 -116 125 -232 240 -242 240 -5 0 -19 -25 -32
-55 -24 -58 -30 -63 -47 -42 -7 9 0 27 25 65 19 28 33 58 30 66 -16 42 -286
233 -425 300 -48 23 -103 50 -122 59 l-35 17 36 -5 c20 -3 64 -19 98 -35z m-1
-45 c61 -30 112 -56 112 -60 0 -3 -15 1 -32 9 -174 77 -220 96 -233 96 -8 0
-15 5 -15 11 0 18 45 3 168 -56z m3396 48 c7 -7 -122 -143 -136 -143 -19 0 -6
28 22 48 17 13 30 29 30 37 0 8 8 15 18 15 11 0 24 11 30 25 12 25 23 31 36
18z m-254 -23 l35 -19 -34 -1 c-33 0 -33 0 -17 -25 9 -14 12 -25 7 -25 -5 0
-12 4 -15 9 -3 4 -26 11 -51 14 -59 6 -63 12 -35 42 28 30 62 31 110 5z
m-3849 -109 c67 -26 122 -70 155 -122 33 -53 31 -56 -18 -16 -58 46 -276 158
-232 119 40 -36 143 -124 163 -139 36 -28 -6 -10 -68 28 -102 64 -166 131
-186 197 -7 23 -5 22 62 -11 37 -18 93 -44 124 -56z m573 40 c50 -26 107 -58
126 -70 208 -131 270 -174 270 -192 0 -4 -74 41 -164 101 -89 60 -202 129
-250 155 -80 43 -97 55 -79 55 3 0 47 -22 97 -49z m156 -136 c74 -52 164 -119
200 -149 36 -31 67 -56 70 -55 3 0 22 22 43 49 l37 49 -72 57 c-40 32 -79 62
-85 67 -28 21 -12 -21 23 -62 57 -66 31 -60 -44 10 -56 53 -64 65 -47 68 11 1
23 7 26 13 9 15 54 -12 148 -87 55 -45 79 -70 73 -78 -4 -7 -26 -33 -46 -60
-32 -39 -36 -50 -26 -62 7 -8 18 -15 24 -15 7 0 37 -13 67 -29 30 -16 65 -32
78 -36 l23 -7 -25 37 c-24 35 -26 75 -5 75 13 0 129 -112 123 -118 -3 -3 -28
16 -55 43 -59 58 -75 56 -25 -2 19 -23 35 -44 35 -48 0 -4 -27 -5 -60 -2 -51
4 -68 11 -105 42 -57 46 -59 29 -3 -19 64 -55 233 -256 215 -256 -2 0 -49 51
-105 113 -210 235 -262 281 -507 456 -88 63 -167 113 -232 148 -18 9 -33 21
-33 26 0 16 151 -72 290 -168z m-362 110 c60 -27 154 -112 182 -165 13 -24 4
-25 -43 -5 -64 27 -49 -3 18 -36 36 -17 64 -34 62 -36 -2 -1 -25 0 -50 3 -39
6 -52 14 -87 55 -34 40 -38 49 -23 50 10 1 -4 5 -32 9 -27 4 -54 3 -59 -1 -6
-6 -3 -9 8 -9 17 0 130 -99 122 -108 -3 -2 -29 15 -58 39 -30 24 -65 52 -78
61 -25 17 -25 18 -5 34 19 16 19 16 -7 10 -30 -7 -47 9 -29 27 21 21 13 27
-47 28 -22 1 -22 2 -7 19 16 18 15 19 -22 29 -21 6 -44 11 -50 11 -7 0 -13 5
-13 11 0 23 149 5 218 -26z m3391 8 c59 -23 35 -31 -91 -32 l-97 -1 -3 -89
c-4 -122 -6 -119 55 -124 l52 -3 -62 -2 -63 -2 0 125 0 125 48 0 c26 0 54 5
62 10 22 14 49 12 99 -7z m-231 -266 c23 -22 129 -39 192 -31 38 5 43 4 32 -7
-19 -20 -177 -19 -217 1 -55 28 -80 127 -54 216 l14 47 7 -104 c6 -80 12 -108
26 -122z m422 215 c0 -5 -9 -17 -20 -27 -19 -18 -20 -17 -20 3 0 18 11 29 33
31 4 1 7 -3 7 -7z m-3294 -119 c43 -43 106 -140 119 -180 10 -34 2 -28 -35 25
-30 41 -146 188 -160 202 -3 3 -12 14 -20 25 -24 31 47 -22 96 -72z m2994 72
c0 -18 21 -20 38 -3 19 19 27 0 8 -21 -10 -11 -15 -24 -12 -29 3 -5 -2 -12
-12 -15 -9 -2 -25 -8 -34 -12 -16 -6 -18 -1 -18 44 0 39 4 51 15 51 8 0 15 -7
15 -15z m250 -2 c-1 -9 -68 -83 -75 -83 -10 0 10 37 33 63 25 26 42 35 42 20z
m-3566 -175 c18 -18 37 -41 43 -51 9 -18 12 -17 46 6 68 46 139 46 230 0 63
-31 56 -38 -11 -13 -29 11 -67 20 -85 20 -37 0 -106 -29 -126 -53 -17 -22 -5
-22 60 -1 l50 16 64 -31 c41 -21 77 -48 103 -79 44 -53 82 -122 82 -149 -1
-21 -36 16 -109 111 -50 66 -113 116 -147 116 -30 0 -154 -61 -154 -75 0 -7
29 -8 96 -2 52 5 106 6 120 3 23 -6 89 -84 80 -94 -3 -2 -28 12 -55 32 -58 43
-95 51 -186 41 -48 -5 -73 -13 -94 -31 -39 -33 -51 -30 -19 4 37 39 48 65 48
114 0 115 -113 170 -217 107 -37 -23 -68 -93 -61 -139 6 -37 1 -39 -12 -4 -21
55 30 149 95 174 15 6 41 10 60 10 35 0 35 0 52 70 8 34 8 34 11 -17 3 -43 9
-58 36 -85z m1682 33 l189 -90 68 -86 c38 -48 73 -83 79 -79 5 4 21 30 34 58
l23 51 -6 -49 c-5 -36 -3 -47 5 -42 7 4 12 26 13 49 l1 42 11 -33 c13 -40 0
-82 -28 -97 -46 -23 -46 -25 -25 -56 14 -19 16 -27 7 -23 -8 3 -49 48 -93 101
-43 53 -90 109 -104 124 -22 25 -279 153 -289 144 -5 -6 250 -379 273 -398
l21 -17 -24 -20 c-28 -24 -28 -23 24 -39 22 -7 47 -15 55 -18 11 -4 10 0 -4
16 -23 25 -10 27 22 3 16 -12 21 -23 16 -35 -5 -15 -15 -17 -58 -13 -28 3 -93
0 -145 -7 l-94 -12 49 -22 c27 -12 84 -38 127 -57 79 -36 108 -66 40 -42 -86
30 -313 130 -313 138 0 4 37 8 83 8 98 0 132 7 117 25 -7 8 -3 19 15 35 14 13
25 31 25 40 0 21 -58 102 -70 98 -5 -2 -68 -54 -139 -116 -178 -153 -284 -276
-459 -533 -80 -116 -89 -122 -174 -123 l-72 -1 -32 93 c-18 51 -49 116 -69
143 -19 27 -35 53 -35 57 0 17 112 107 235 189 166 111 412 231 611 298 60 20
110 38 111 39 2 1 -22 39 -52 84 -30 45 -80 119 -110 164 -49 73 -62 98 -51
98 2 0 88 -40 192 -89z m-2156 35 c112 -24 238 -82 219 -101 -3 -3 -35 1 -70
10 -111 26 -114 18 -6 -20 26 -9 47 -23 47 -31 0 -17 -4 -17 -62 0 -85 26
-440 68 -393 47 11 -5 70 -23 130 -40 l110 -30 -71 0 c-65 -1 -252 27 -299 45
-14 5 -17 4 -10 -3 12 -13 161 -70 213 -82 29 -7 31 -9 12 -10 -78 -3 -273 79
-350 148 l-45 40 55 1 c30 1 109 9 175 20 146 22 259 24 345 6z m4251 -68 c19
-42 24 -74 27 -158 2 -60 -1 -116 -7 -130 -9 -20 -10 -12 -7 42 2 37 1 69 -1
72 -3 3 -35 -15 -70 -39 -36 -25 -71 -45 -79 -45 -31 0 -163 69 -174 92 -28
53 -38 58 -82 42 -60 -21 -99 -17 -146 13 -42 27 -58 52 -24 38 57 -24 92 -27
158 -12 l68 16 43 -48 c24 -26 68 -65 98 -85 l54 -38 78 44 c77 44 78 45 76
81 -1 21 -11 57 -21 80 l-19 42 -18 -43 c-33 -81 -116 -108 -172 -56 -21 19
-23 24 -8 18 11 -5 40 -8 64 -8 38 0 48 4 72 34 16 19 34 49 40 67 6 18 14 33
19 33 4 0 18 -24 31 -52z m-699 -5 c40 -39 34 -48 -12 -17 -22 15 -37 30 -34
35 8 14 16 11 46 -18z m-3117 -34 c30 -27 35 -37 35 -76 0 -78 -42 -123 -114
-123 -103 0 -141 153 -53 209 47 30 90 27 132 -10z m3084 5 c17 -14 31 -30 31
-36 0 -13 -82 33 -88 50 -7 21 25 13 57 -14z m-2444 -75 c82 -56 222 -206 256
-273 6 -11 -42 31 -107 95 -66 64 -146 142 -179 173 -60 57 -48 59 30 5z
m2422 29 c45 -31 46 -51 1 -27 -22 12 -22 13 -1 -39 3 -7 -10 -4 -32 9 -30 18
-55 52 -55 75 0 13 59 1 87 -18z m-96 -25 c12 -15 12 -16 -4 -10 -10 4 -23 7
-28 7 -5 0 -9 5 -9 10 0 16 26 12 41 -7z m-2349 -71 c69 -40 148 -111 217
-197 34 -41 61 -77 61 -80 0 -10 -98 39 -159 80 -89 60 -184 135 -177 142 4 5
113 -53 176 -94 29 -18 -51 61 -130 129 -62 53 -57 61 12 20z m2339 -6 c21
-14 43 -35 49 -46 10 -18 7 -18 -37 6 -85 45 -121 19 -133 -96 l-5 -55 -18 32
c-24 44 -21 85 9 145 25 49 27 50 61 45 20 -4 53 -18 74 -31z m269 -15 c0 -12
-6 -9 -20 9 -26 33 -26 48 0 25 11 -10 20 -25 20 -34z m35 39 c3 -5 1 -10 -4
-10 -6 0 -11 5 -11 10 0 6 2 10 4 10 3 0 8 -4 11 -10z m-3595 -17 c0 -5 -20
-16 -44 -26 -50 -21 -115 -74 -148 -120 -18 -27 -13 -24 30 16 58 53 93 65 45
15 -34 -36 -107 -172 -101 -190 2 -6 15 7 30 29 34 52 118 115 211 158 87 40
137 47 62 8 -82 -42 -167 -109 -188 -148 -7 -14 0 -11 24 10 41 36 108 79 114
73 3 -2 -26 -36 -64 -74 -80 -82 -120 -144 -50 -78 47 44 118 94 133 94 5 0
-9 -16 -31 -35 -82 -70 -213 -260 -218 -315 -3 -36 -16 -61 -27 -54 -7 4 -8
32 -4 73 5 53 4 62 -6 46 -6 -11 -12 -48 -12 -82 -1 -73 -11 -62 -25 28 -13
79 -14 210 -1 264 5 22 7 41 5 44 -8 8 -47 -95 -60 -159 l-13 -65 -1 56 c-3
204 102 363 279 420 30 10 56 18 58 18 1 1 2 -2 2 -6z m3512 -30 c10 -9 18
-20 18 -25 0 -11 -38 14 -44 29 -7 18 4 16 26 -4z m-2967 -68 c33 -13 125 -54
205 -93 80 -38 159 -72 175 -77 62 -16 3 -16 -75 0 -91 18 -192 52 -287 95
-79 36 -73 24 16 -35 123 -80 223 -125 356 -161 l90 -25 -70 5 c-38 3 -101 15
-140 26 -71 22 -241 100 -305 140 -33 20 -32 19 8 -18 123 -111 326 -189 507
-193 44 -1 46 -2 20 -9 -16 -4 -58 -8 -91 -9 -219 -4 -487 128 -563 277 -28
55 -27 66 11 91 36 22 49 21 143 -14z m2728 -10 c15 -19 24 -35 20 -35 -4 0
-18 -3 -29 -6 -19 -5 -22 -1 -26 35 -2 23 -1 41 2 41 3 0 18 -16 33 -35z m227
15 c0 -5 -4 -10 -10 -10 -5 0 -10 5 -10 10 0 6 5 10 10 10 6 0 10 -4 10 -10z
m-410 -44 c0 -7 -34 -24 -77 -38 -72 -24 -79 -25 -96 -10 -23 20 -13 26 85 51
75 19 88 19 88 -3z m310 -45 c0 -29 -111 -75 -158 -66 l-37 8 62 13 c62 12
123 41 123 56 0 4 2 8 5 8 3 0 5 -8 5 -19z m-3054 -38 c10 -21 53 -73 96 -115
44 -43 76 -78 72 -78 -15 0 -106 74 -134 110 -26 33 -60 98 -60 115 0 14 11 1
26 -32z m1994 1 l25 -15 -25 7 c-14 3 -29 10 -34 15 -16 14 6 10 34 -7z m784
7 c5 -8 -33 -28 -94 -50 -23 -8 -25 -13 -22 -60 l4 -51 51 0 c29 0 61 -3 72
-6 18 -4 23 2 34 45 7 28 17 51 22 51 5 0 9 -34 9 -76 0 -69 -2 -75 -17 -68
-10 5 -62 9 -116 9 l-97 0 0 87 c0 48 -4 90 -10 93 -18 11 -10 22 13 18 12 -2
42 1 67 6 61 12 78 13 84 2z m-425 -12 c-127 -13 -203 -64 -244 -163 -17 -41
-20 -142 -5 -182 16 -41 2 -42 -15 -1 -34 82 -10 195 56 271 52 59 119 85 214
84 l70 -1 -76 -8z m231 -100 c0 -32 -3 -60 -7 -62 -16 -10 -108 -11 -113 -2
-3 5 12 12 34 16 21 3 42 12 46 19 4 7 6 40 4 74 l-5 61 21 -24 c15 -17 20
-37 20 -82z m-2668 -6 c-39 -102 -65 -234 -56 -293 l7 -45 14 60 c21 94 71
248 86 269 14 19 16 18 48 -13 19 -18 53 -46 77 -63 23 -17 42 -35 42 -40 0
-5 -4 -6 -10 -3 -5 3 -10 0 -10 -8 0 -8 -27 -43 -60 -77 -74 -77 -119 -153
-130 -222 -4 -29 -6 -55 -3 -58 3 -3 19 12 37 33 l33 39 16 -76 c9 -42 17 -90
17 -106 0 -70 39 -2 42 73 1 21 3 37 6 37 2 0 15 -9 29 -20 29 -22 54 -15 74
22 11 20 7 84 -6 120 -5 11 4 18 34 26 l41 10 0 -55 c0 -80 -45 -154 -115
-191 -16 -8 -25 -17 -18 -19 15 -5 62 19 103 53 44 38 75 89 100 170 19 63 68
134 92 134 23 0 -20 -602 -52 -719 -5 -19 -7 -37 -4 -40 3 -3 41 31 84 76 45
48 82 78 85 72 4 -5 9 -54 12 -107 l4 -97 -44 -33 c-119 -87 -326 -189 -335
-165 -1 5 -17 37 -35 73 -27 54 -39 68 -74 85 -64 29 -55 60 23 80 l49 12 -40
12 c-22 6 -63 11 -92 11 l-51 0 5 38 c6 43 -9 58 -79 81 -21 7 -38 15 -38 17
0 3 12 21 26 39 31 41 54 113 54 169 0 32 -13 62 -60 140 -33 55 -69 129 -80
164 -23 74 -26 200 -6 247 11 27 12 21 8 -55 -3 -52 1 -109 9 -145 l14 -60 5
65 c5 62 5 63 14 30 8 -32 9 -33 13 -10 13 93 50 226 80 290 44 95 54 76 15
-27z m2873 37 c-19 -28 -35 -40 -51 -40 -13 0 -24 4 -24 9 0 11 93 81 99 75 2
-2 -9 -22 -24 -44z m-410 30 c-93 -8 -141 -26 -179 -66 -45 -48 -66 -98 -66
-159 0 -30 -4 -55 -10 -55 -22 0 -10 100 19 158 52 101 107 133 231 131 l85
-2 -80 -7z m75 -22 c-74 -16 -86 -24 -106 -72 -11 -25 -22 -46 -25 -46 -14 0
-100 75 -90 78 6 2 28 -11 48 -28 l36 -32 26 48 c27 52 47 62 121 62 33 0 33
-1 -10 -10z m29 -42 c-3 -3 -24 -9 -47 -14 -33 -8 -42 -7 -42 3 0 9 15 15 43
17 43 3 54 2 46 -6z m-2875 -102 c-30 -32 -74 -83 -96 -112 -58 -75 -60 -55
-3 29 43 62 141 157 151 146 2 -2 -21 -30 -52 -63z m2641 -25 c-3 -4 -17 -4
-31 1 -14 6 -28 10 -31 10 -3 0 -3 -37 1 -82 8 -98 -9 -90 -20 9 -9 87 -5 94
45 81 22 -6 38 -14 36 -19z m-2609 -43 c-27 -47 -36 -85 -12 -53 22 29 25 19
8 -33 -19 -54 -28 -62 -35 -27 -2 12 -5 2 -6 -23 -2 -60 -21 -33 -21 30 0 46
12 73 58 123 36 38 38 34 8 -17z m3171 20 c34 -29 25 -45 -11 -20 -21 13 -40
16 -86 11 -73 -6 -80 -11 -80 -50 0 -18 -5 -39 -10 -47 -7 -11 -10 5 -10 52 0
77 -2 75 102 77 57 1 71 -2 95 -23z m-998 -17 c58 -10 108 -19 113 -19 18 0 7
-39 -13 -45 -21 -7 -22 -11 -15 -125 4 -69 3 -121 -3 -124 -5 -3 -11 2 -14 13
-5 20 -47 30 -142 32 -33 1 -73 5 -90 9 -19 5 11 8 82 7 62 0 116 2 119 6 4 4
-26 7 -67 8 -78 1 -65 16 16 18 22 1 47 6 55 11 26 17 -89 11 -180 -10 -46
-10 -86 -18 -87 -16 -4 4 184 129 225 150 17 9 32 20 32 24 0 4 -39 22 -88 41
-92 36 -129 59 -77 46 16 -3 77 -15 134 -26z m-1497 -21 c43 -13 78 -26 78
-30 0 -4 -35 -14 -77 -22 -123 -25 -196 -43 -217 -51 -16 -7 -17 -6 -7 14 13
23 120 111 135 111 6 0 45 -10 88 -22z m2179 -58 c-1 -30 -3 -56 -4 -57 -1 -1
-27 -3 -57 -4 l-55 -3 -3 48 c-5 73 -1 77 65 74 l57 -3 -3 -55z m-1984 -142
c-3 -65 -4 -118 -2 -118 2 0 13 43 26 95 12 52 24 95 26 95 8 0 -7 -110 -24
-170 -45 -165 -110 -346 -120 -336 -2 2 1 32 6 67 8 51 68 507 72 545 0 5 5
-7 11 -26 6 -21 8 -83 5 -152z m161 104 c42 -109 55 -197 56 -367 0 -127 -5
-184 -23 -275 -24 -123 -50 -224 -57 -218 -2 3 1 60 6 129 17 220 10 572 -15
752 -8 55 7 45 33 -21z m2013 9 c-15 -27 -14 -64 2 -80 10 -10 7 -12 -13 -9
-23 3 -25 7 -22 42 4 47 34 111 40 84 2 -9 -2 -26 -7 -37z m-431 -17 l0 -45
-42 3 c-50 4 -57 22 -10 26 29 3 32 6 32 38 0 21 4 33 10 29 6 -3 10 -26 10
-51z m570 8 c16 -57 12 -168 -6 -205 -36 -71 -103 -123 -192 -146 -51 -14
-129 4 -193 45 -59 37 -46 44 20 11 77 -38 132 -44 205 -23 71 21 141 82 156
135 14 50 12 116 -4 179 -8 28 -10 50 -5 47 4 -3 13 -22 19 -43z m-44 -35 c25
-108 15 -155 -42 -206 -71 -62 -164 -75 -258 -36 -47 20 -86 54 -86 76 0 16 7
19 48 18 26 -1 37 -4 25 -6 -13 -2 -23 -9 -23 -14 0 -6 -8 -5 -20 1 -35 19
-22 -6 18 -33 53 -37 85 -47 149 -47 66 0 112 20 153 66 32 37 39 84 21 154
-16 64 -21 100 -12 100 5 0 17 -33 27 -73z m-43 -134 c-26 -52 -63 -75 -127
-81 -58 -5 -126 4 -126 16 0 4 18 6 41 4 l41 -4 -7 57 c-5 38 -4 56 2 52 6 -4
13 -27 16 -53 6 -58 14 -66 58 -54 34 10 108 74 97 85 -3 4 -31 9 -62 12 -78
8 -70 22 9 15 51 -4 65 -2 66 9 1 8 3 7 6 -4 2 -9 -4 -34 -14 -54z m-2573 11
c0 -14 -5 -34 -11 -45 -10 -20 -11 -20 -30 -3 -20 18 -26 44 -9 44 6 0 10 -4
10 -10 0 -5 5 -10 10 -10 6 0 10 14 10 31 0 17 4 28 10 24 6 -3 10 -17 10 -31z
m715 -184 c0 -134 -23 -237 -64 -289 -16 -21 -15 -14 6 49 14 41 30 116 36
167 10 90 9 105 -18 268 -4 22 0 17 17 -20 20 -43 23 -66 23 -175z m-57 29 c5
-146 -14 -252 -69 -368 -21 -46 -42 -81 -45 -78 -4 3 5 52 19 109 14 57 29
135 33 173 7 61 9 65 14 35 l6 -35 9 50 c5 28 9 98 10 157 0 143 18 112 23
-43z m1362 28 c0 -36 -4 -46 -25 -57 -14 -7 -27 -11 -29 -9 -3 2 -8 28 -12 57
l-7 52 37 0 c36 0 36 0 36 -43z m-872 -114 c22 -38 55 -84 72 -103 29 -33 28
-29 -15 53 -26 49 -45 91 -42 93 4 4 84 -100 140 -182 28 -42 38 -79 15 -56
-19 19 -26 14 -20 -13 8 -42 -24 -30 -69 28 -35 43 -129 219 -129 241 0 15 10
2 48 -61z m272 32 c7 -9 8 -15 2 -15 -5 0 -12 7 -16 15 -3 8 -4 15 -2 15 2 0
9 -7 16 -15z m1164 4 c-11 -18 -127 -69 -157 -69 -52 0 -23 22 63 47 47 13 86
26 89 29 9 8 12 4 5 -7z m41 -67 c-8 -9 -35 20 -28 31 4 6 11 3 19 -8 8 -10
12 -21 9 -23z m-801 22 c10 -4 16 -18 16 -40 0 -37 -20 -54 -65 -54 -23 0 -25
3 -19 28 6 26 4 25 -40 -18 -25 -24 -46 -48 -46 -53 0 -5 23 -7 50 -5 28 3 50
2 50 -2 0 -11 -92 -80 -106 -80 -8 0 -22 17 -33 38 l-19 37 75 70 c41 39 84
73 96 77 12 3 23 6 24 7 1 1 8 -2 17 -5z m766 -23 c16 -30 12 -36 -10 -16 -21
19 -26 35 -10 35 5 0 14 -9 20 -19z m-1276 -35 c34 -58 48 -96 36 -96 -15 0
-59 72 -66 108 -9 43 -1 40 30 -12z m-284 -205 c6 -24 8 -46 5 -49 -10 -10
-47 91 -56 155 -13 93 2 101 23 13 9 -41 22 -95 28 -119z m-65 58 c28 -109 31
-135 9 -99 l-15 25 5 -30 c3 -16 9 -41 12 -55 6 -21 5 -23 -8 -13 -17 14 -62
96 -73 132 -5 17 -4 21 5 16 9 -6 10 3 5 35 -5 30 -4 41 4 36 6 -4 11 -13 11
-21 0 -8 3 -16 8 -18 4 -3 5 18 3 46 -1 29 0 49 3 46 3 -3 17 -48 31 -100z
m670 -59 c32 0 40 -16 12 -24 -43 -11 -55 -7 -67 28 l-11 35 -50 -52 c-27 -28
-49 -53 -49 -55 0 -3 29 -2 65 0 61 5 85 -2 49 -16 -19 -7 -164 -8 -164 -1 0
3 37 42 82 86 l82 81 14 -41 c11 -33 19 -41 37 -41z m-855 -23 c0 -7 20 -48
45 -91 45 -79 53 -107 18 -67 -26 31 -37 25 -16 -9 11 -20 14 -33 8 -38 -61
-42 -253 -166 -265 -170 -8 -3 2 16 21 44 50 68 57 83 26 55 -15 -14 -27 -21
-27 -17 0 4 27 51 61 104 33 54 72 122 87 154 24 51 42 66 42 35z m640 -167
c1 -24 3 -23 39 18 21 23 44 42 50 42 26 0 7 -36 -51 -97 l-63 -65 -6 28 c-9
42 -10 139 -2 148 10 9 32 -41 33 -74z m-409 -28 c-19 -15 -49 -42 -67 -61
-18 -18 -37 -30 -43 -26 -16 9 -6 21 61 71 64 47 106 61 49 16z"/>
<path d="M6940 6250 c0 -11 -4 -20 -10 -20 -5 0 -10 5 -10 11 0 6 -10 9 -22 7
-18 -2 -24 -11 -26 -35 -3 -32 -2 -33 37 -33 l41 0 0 45 c0 25 -2 45 -5 45 -3
0 -5 -9 -5 -20z m-30 -20 c0 -5 -4 -10 -10 -10 -5 0 -10 5 -10 10 0 6 5 10 10
10 6 0 10 -4 10 -10z"/>
<path d="M3434 5912 c3 -6 31 -20 61 -33 30 -12 55 -26 55 -30 0 -7 -83 12
-160 36 -58 19 -62 12 -9 -16 24 -12 76 -43 116 -70 l73 -48 0 47 c0 26 -4 52
-8 58 -14 22 -142 78 -128 56z"/>
<path d="M3619 5833 c-2 -18 3 -98 6 -102 2 -2 32 0 65 4 70 8 70 7 -17 69
-29 21 -53 34 -54 29z"/>
<path d="M3693 5693 c-18 -2 -33 -6 -33 -9 0 -9 75 -72 85 -70 6 0 9 15 7 31
-3 38 -9 55 -19 53 -4 0 -23 -3 -40 -5z"/>
<path d="M3800 5642 c0 -59 0 -60 31 -66 17 -3 52 -6 78 -6 l46 0 -60 55 c-94
86 -95 87 -95 17z"/>
<path d="M4330 5029 c-63 -34 -127 -70 -142 -80 -14 -11 -29 -19 -32 -19 -3 0
-52 -30 -109 -67 -120 -78 -229 -164 -251 -198 l-16 -25 40 0 c40 0 40 0 40
-39 0 -21 -11 -58 -25 -85 -13 -25 -21 -46 -17 -46 22 0 83 56 118 107 83 124
144 200 207 262 106 104 123 106 42 6 -46 -57 -99 -144 -92 -151 3 -3 20 16
38 43 56 83 161 197 272 299 33 29 56 54 51 54 -5 0 -61 -28 -124 -61z"/>
<path d="M2735 5355 c-35 -34 -33 -78 4 -116 36 -36 60 -37 100 -3 24 20 31
34 31 63 0 74 -83 109 -135 56z m75 -30 c17 -21 4 -67 -18 -63 -18 3 -28 39
-18 64 7 18 20 18 36 -1z"/>
<path d="M4685 4626 c-16 -8 -52 -23 -79 -35 -27 -12 -47 -24 -44 -27 8 -7
146 46 159 62 14 17 3 17 -36 0z"/>
<path d="M5302 4698 c-7 -7 -12 -23 -12 -36 0 -20 4 -23 28 -20 22 2 28 8 30
36 3 26 0 32 -15 32 -11 0 -24 -5 -31 -12z"/>
<path d="M4818 4215 c-3 -3 -3 -17 0 -31 6 -33 37 -28 37 6 0 23 -23 39 -37
25z"/>
<path d="M4710 4070 c-8 -5 -11 -12 -7 -16 4 -4 13 -2 19 4 15 15 7 24 -12 12z"/>
<path d="M5147 5433 c25 -71 47 -136 50 -145 13 -42 93 7 93 57 0 8 -28 48
-63 88 -35 39 -74 84 -87 100 -13 15 -27 27 -31 27 -3 0 14 -57 38 -127z"/>
<path d="M6913 4633 c-13 -2 -23 -11 -23 -19 0 -17 2 -17 35 -2 23 10 36 30
18 27 -5 -1 -18 -4 -30 -6z"/>
<path d="M827 4613 c33 -17 51 -13 38 6 -3 6 -21 11 -38 10 l-32 0 32 -16z"/>
<path d="M920 4600 c-12 -7 -12 -13 -4 -27 15 -24 58 -24 62 1 6 30 -28 45
-58 26z"/>
<path d="M6776 4595 c-3 -8 2 -22 11 -30 14 -15 17 -14 34 1 11 9 19 23 19 31
0 18 -56 17 -64 -2z"/>
<path d="M6663 4583 c-22 -8 -16 -61 8 -68 22 -7 59 18 59 41 0 23 -40 39 -67
27z"/>
<path d="M1033 4564 c-9 -24 10 -49 37 -49 27 0 46 25 37 49 -4 10 -18 16 -37
16 -19 0 -33 -6 -37 -16z"/>
<path d="M1172 4554 c-47 -33 -14 -114 46 -114 59 0 87 76 42 112 -27 22 -58
23 -88 2z"/>
<path d="M6486 4548 c-23 -33 -19 -64 10 -87 36 -28 68 -26 93 5 25 32 26 52
5 82 -11 16 -25 22 -54 22 -29 0 -43 -6 -54 -22z"/>
<path d="M1335 4469 c-8 -24 -1 -35 27 -42 13 -2 140 -38 283 -80 143 -42 316
-92 385 -112 69 -20 154 -45 189 -56 81 -25 101 -24 101 1 0 11 -2 20 -4 20
-9 0 -892 259 -933 274 -40 14 -42 14 -48 -5z"/>
<path d="M6250 4440 c-85 -26 -206 -62 -267 -80 -103 -30 -113 -35 -113 -56 0
-13 4 -24 8 -24 4 0 116 32 247 71 132 40 252 74 268 77 15 2 30 8 33 13 7 11
-5 49 -14 48 -4 -1 -77 -23 -162 -49z"/>
<path d="M560 4364 c0 -6 117 -264 279 -614 l67 -144 260 2 c142 2 419 7 614
12 195 5 378 10 406 10 l51 0 7 123 c3 67 9 147 12 178 l6 56 -128 17 c-71 9
-176 23 -234 31 -58 8 -168 22 -245 31 -77 8 -239 28 -360 42 l-220 27 -3 33
c-4 39 -7 38 143 13 61 -10 219 -37 352 -60 264 -45 641 -101 679 -101 36 0
29 26 -8 34 -108 22 -1088 209 -1208 231 -324 58 -367 66 -407 75 -49 12 -63
12 -63 4z"/>
<path d="M2462 4283 c-46 -102 -84 -220 -109 -348 -26 -134 -24 -387 5 -522
29 -133 72 -255 133 -375 50 -96 143 -238 157 -238 4 0 19 19 33 42 l25 43
-47 65 c-103 142 -186 354 -215 550 -36 249 7 523 118 745 l30 59 -38 33 c-22
18 -42 33 -45 33 -3 0 -24 -39 -47 -87z"/>
<path d="M5354 4157 c-33 -49 -38 -65 -12 -34 l24 27 12 -46 c18 -66 24 -49
10 24 l-13 62 -21 -33z"/>
<path d="M5145 4130 c-38 -39 -39 -39 -64 -23 l-25 16 -278 -283 -278 -282 0
-135 0 -134 37 3 c34 3 39 7 48 40 5 20 13 39 17 43 3 4 61 -49 127 -117 116
-120 119 -123 93 -130 -15 -3 -72 -18 -127 -31 -90 -23 -286 -97 -309 -118 -5
-4 24 -6 65 -3 l74 4 -94 -35 c-126 -48 -131 -48 -147 -3 -43 124 -165 330
-259 438 -90 104 -173 190 -182 190 -13 0 -209 -216 -267 -295 -52 -68 -114
-179 -158 -280 -16 -38 -35 -75 -42 -82 -8 -9 -34 -3 -106 24 -52 20 -97 37
-99 39 -11 10 9 11 64 4 33 -4 62 -6 63 -4 13 10 -187 87 -313 119 -97 25
-314 60 -321 52 -3 -3 7 -30 23 -60 l28 -56 104 0 c57 -1 133 -6 167 -12 l63
-11 25 -54 c29 -63 113 -155 174 -191 31 -19 42 -31 40 -46 -5 -34 -33 -44
-67 -24 -28 17 -30 16 -130 -30 -55 -26 -101 -49 -101 -53 0 -9 98 -80 110
-80 25 0 200 119 247 167 28 30 53 50 55 46 10 -23 216 -168 226 -159 3 3 3 7
1 9 -2 2 -20 15 -39 29 -101 72 -187 138 -204 157 -11 11 -26 21 -35 21 -26 1
-59 23 -117 80 -84 83 -73 87 68 23 l78 -34 246 -8 c135 -5 341 -5 457 0 210
9 213 9 301 44 49 20 95 35 104 33 20 -4 -122 -138 -146 -138 -10 0 -29 -12
-43 -26 -19 -20 -153 -121 -233 -176 -6 -4 -7 -10 -4 -14 7 -7 155 92 201 134
l27 26 53 -51 c28 -28 77 -66 107 -84 30 -18 69 -43 86 -56 17 -13 37 -23 43
-23 18 0 111 73 107 85 -1 5 -49 31 -107 56 -99 45 -104 46 -117 28 -16 -23
-58 -25 -66 -3 -12 31 -5 42 63 93 68 50 144 146 157 196 8 30 29 35 209 42
l150 6 38 53 c20 29 37 55 37 57 0 3 -9 7 -19 10 -27 7 -51 93 -51 184 0 83
19 176 55 273 l24 65 0 -64 c1 -35 -6 -118 -15 -186 -12 -88 -14 -136 -7 -171
l9 -49 23 50 c63 141 91 291 91 495 0 81 -3 150 -7 153 -3 4 -15 0 -25 -10
-10 -9 -18 -13 -18 -9 0 4 18 68 41 143 22 74 38 137 36 139 -2 2 -21 -14 -42
-36z m-156 -576 c-17 -60 -33 -111 -35 -114 -11 -10 10 90 34 165 37 118 38
76 1 -51z m-1037 -231 c90 -117 174 -245 217 -331 17 -34 31 -64 31 -67 0 -3
-72 -5 -159 -5 -143 0 -190 7 -162 24 5 4 42 50 82 103 61 82 70 99 60 114
-20 34 -174 219 -180 219 -4 0 -49 -52 -100 -115 l-93 -115 33 -51 c18 -28 52
-76 76 -107 23 -30 43 -59 43 -64 0 -4 -72 -8 -160 -8 -108 0 -160 4 -160 11
0 16 115 213 168 289 26 36 80 105 121 154 72 85 75 88 90 69 9 -11 51 -65 93
-120z m-27 -173 c7 -11 -71 -130 -84 -130 -17 0 -99 125 -87 132 17 11 164 9
171 -2z"/>
<path d="M3586 3034 c-21 -31 -35 -58 -33 -60 3 -3 39 -4 82 -2 l77 3 -45 57
-44 58 -37 -56z"/>
<path d="M4025 3048 c-51 -64 -55 -68 -55 -72 0 -3 36 -6 80 -8 44 -2 80 0 80
4 0 12 -63 108 -71 108 -4 0 -19 -15 -34 -32z"/>
<path d="M5534 4055 c-18 -14 -18 -14 8 -15 34 0 59 10 52 21 -8 14 -38 11
-60 -6z"/>
<path d="M5266 4021 l-39 -40 14 -83 c7 -46 13 -146 13 -223 0 -156 -17 -261
-66 -415 -48 -152 -168 -378 -168 -317 0 30 -24 18 -52 -26 l-27 -42 31 -55
c39 -69 119 -192 123 -188 2 2 -1 42 -7 90 -9 81 -9 90 10 120 224 357 302
722 236 1107 -20 117 -22 119 -68 72z"/>
<path d="M2510 3656 c0 -119 6 -134 54 -146 87 -21 275 -73 354 -97 l84 -26
40 42 c22 24 38 44 36 46 -2 2 -59 28 -128 58 -69 30 -194 87 -279 126 -85 39
-156 71 -158 71 -2 0 -3 -33 -3 -74z"/>
<path d="M2040 3550 c-96 -4 -377 -11 -625 -15 -247 -3 -455 -8 -462 -10 -9
-3 -7 -17 9 -52 11 -26 23 -51 27 -55 3 -4 71 -2 151 3 519 32 647 41 830 54
113 8 222 16 243 17 36 2 38 4 35 32 -4 37 12 35 -208 26z"/>
<path d="M5446 3553 c-3 -4 -6 -17 -6 -29 0 -32 -45 -27 770 -79 212 -13 412
-27 445 -29 l60 -6 23 52 c17 40 20 53 10 60 -7 4 -105 8 -217 8 -184 0 -663
12 -962 24 -64 3 -120 2 -123 -1z"/>
<path d="M2540 3410 c0 -11 11 -54 25 -97 l25 -79 117 -13 c65 -6 132 -14 148
-17 27 -5 35 0 77 52 34 42 44 61 35 66 -10 5 -309 80 -409 102 -12 3 -18 -2
-18 -14z"/>
<path d="M3280 3339 c-80 -44 -149 -84 -153 -88 -5 -5 1 -41 14 -80 l23 -71
55 -21 c31 -11 75 -31 99 -44 49 -27 37 -37 102 88 46 89 47 97 21 97 -11 0
-22 3 -24 8 -3 4 3 49 12 100 12 63 14 92 7 92 -6 0 -76 -36 -156 -81z"/>
<path d="M1922 3266 c-177 -46 -324 -85 -327 -88 -3 -2 8 -16 23 -31 l28 -27
129 39 c326 99 474 141 489 141 10 0 16 9 16 25 0 18 -5 25 -17 24 -10 -1
-163 -38 -341 -83z"/>
<path d="M5420 3330 c0 -21 3 -22 418 -146 l223 -66 25 27 c14 15 22 31 17 35
-4 4 -44 15 -88 25 -44 9 -118 28 -165 40 -127 35 -409 105 -420 105 -6 0 -10
-9 -10 -20z"/>
<path d="M2995 3235 c-32 -36 -55 -68 -52 -71 8 -8 151 -44 155 -39 4 4 -36
166 -43 173 -1 1 -28 -27 -60 -63z"/>
<path d="M4589 3207 c-15 -45 -25 -83 -24 -85 3 -4 157 37 163 43 6 6 -91 125
-102 125 -6 0 -23 -37 -37 -83z"/>
<path d="M2250 3260 c-253 -84 -622 -200 -634 -200 -9 0 -35 25 -59 55 -32 41
-48 55 -67 54 -49 -1 -331 -54 -332 -62 0 -5 55 -101 123 -214 68 -113 151
-251 184 -307 33 -56 68 -112 77 -125 l17 -24 98 58 c54 32 141 86 193 120
158 102 228 147 400 255 91 57 166 105 168 106 2 1 -12 33 -31 70 -19 38 -47
104 -62 147 -28 79 -31 82 -75 67z m-215 -451 c-49 -33 -107 -69 -128 -80 -38
-20 -67 -20 -67 1 0 11 246 139 270 139 8 1 -25 -26 -75 -60z"/>
<path d="M5379 3203 c-12 -38 -37 -101 -56 -142 -18 -41 -32 -78 -31 -83 2 -4
68 -48 148 -97 80 -49 178 -111 219 -137 197 -126 484 -304 490 -304 6 0 25
29 188 295 44 72 112 182 151 246 40 63 72 120 72 126 0 5 -82 23 -182 39
l-181 30 -41 -58 c-23 -31 -46 -59 -52 -62 -6 -2 -125 33 -265 79 -269 88
-420 135 -431 135 -3 0 -16 -30 -29 -67z m351 -398 c97 -49 128 -69 124 -80
-11 -28 -26 -21 -166 72 -90 60 -107 73 -93 73 3 0 64 -29 135 -65z"/>
<path d="M4420 3160 c-67 -4 -92 -10 -117 -28 l-32 -22 21 -50 c11 -28 23 -50
27 -49 3 0 44 19 91 43 61 30 89 50 99 70 7 15 9 31 5 35 -5 3 -47 4 -94 1z"/>
<path d="M2750 2964 c0 -24 127 -194 145 -194 12 0 140 46 157 56 4 3 -14 36
-40 74 l-47 70 -107 0 c-60 0 -108 -3 -108 -6z"/>
<path d="M4687 2938 c-8 -18 -26 -48 -42 -66 -15 -18 -26 -34 -24 -36 2 -2 43
-20 91 -38 l87 -35 18 26 c27 36 107 153 117 169 6 9 -20 12 -113 12 l-121 0
-13 -32z"/>
<path d="M2455 2809 c-16 -17 -101 -96 -188 -175 -167 -155 -167 -155 -117
-197 18 -15 23 -16 40 -4 27 19 360 318 360 323 0 9 -53 84 -59 83 -3 0 -19
-14 -36 -30z"/>
<path d="M5184 2799 l-28 -41 55 -52 c126 -118 311 -281 322 -283 7 -1 24 13
40 32 l27 33 -189 176 c-105 97 -192 176 -194 176 -2 0 -17 -18 -33 -41z"/>
<path d="M2755 2820 c-3 -5 2 -23 12 -40 l17 -30 -114 -117 c-219 -225 -357
-368 -390 -403 -17 -19 -186 -192 -374 -385 -188 -192 -362 -372 -386 -399
-30 -32 -72 -62 -130 -91 -77 -39 -88 -48 -114 -97 -25 -46 -83 -136 -308
-476 -26 -41 -48 -75 -48 -78 0 -2 -26 -46 -59 -96 -58 -92 -262 -428 -316
-521 -15 -26 -25 -50 -22 -53 8 -8 422 235 790 464 122 77 272 170 333 207
103 64 112 73 145 132 28 52 137 166 614 646 781 786 722 724 704 742 -13 13
-84 -54 -647 -619 l-632 -634 -1 66 0 67 -34 -101 c-56 -169 -58 -172 -177
-231 -99 -50 -322 -128 -495 -174 -52 -14 -83 -27 -83 -36 0 -7 -5 -13 -11
-13 -12 0 -6 49 17 138 16 62 87 219 92 204 1 -5 -12 -57 -31 -114 -42 -125
-52 -168 -39 -168 18 0 41 37 72 115 44 112 136 312 195 424 l50 95 90 19 c50
10 141 26 204 35 105 16 114 20 118 40 3 22 1 23 -59 17 -67 -7 -278 -47 -341
-65 -36 -11 -40 -17 -99 -142 -34 -72 -64 -126 -66 -120 -1 5 25 67 59 136
l63 126 65 21 c51 17 74 31 101 63 37 44 184 197 525 546 116 118 271 278 345
355 74 77 198 206 275 285 187 193 173 170 134 225 -36 50 -35 49 -44 35z
m-1285 -2134 c0 -13 -377 -219 -391 -214 -22 7 60 61 215 139 137 70 176 86
176 75z m-506 -96 c-14 -68 -10 -115 10 -107 6 3 19 8 29 12 9 4 17 3 17 -3 0
-6 -6 -12 -12 -15 -18 -6 -5 -17 38 -32 l37 -12 -49 -29 c-161 -92 -292 -170
-313 -186 -13 -10 -26 -17 -28 -14 -4 4 67 126 74 126 3 0 2 -11 -1 -25 -4
-14 -4 -25 -1 -25 22 0 95 56 95 72 0 5 -11 14 -25 20 -14 6 -25 15 -25 19 0
5 29 53 63 106 35 54 72 112 82 130 11 18 20 31 21 30 1 -1 -4 -31 -12 -67z
m129 -37 c-7 -2 -21 -2 -30 0 -10 3 -4 5 12 5 17 0 24 -2 18 -5z"/>
<path d="M888 478 c-15 -16 -25 -35 -22 -40 4 -6 0 -14 -7 -19 -12 -8 -11 -11
4 -20 9 -5 17 -19 17 -29 0 -11 3 -20 8 -20 15 1 115 65 116 75 0 6 -14 11
-31 13 -24 2 -33 8 -33 22 0 23 -10 50 -19 50 -3 -1 -18 -15 -33 -32z"/>
<path d="M3407 2808 c32 -36 143 -120 153 -116 5 1 35 28 66 58 l57 55 -49 6
c-27 4 -93 9 -147 12 l-99 6 19 -21z"/>
<path d="M4121 2818 c-63 -4 -117 -11 -120 -13 -3 -3 23 -33 56 -67 l62 -61
33 26 c18 14 58 48 88 76 64 58 75 54 -119 39z"/>
<path d="M4856 2748 c-32 -40 -72 -92 -90 -115 -24 -29 -41 -68 -57 -129 -17
-67 -38 -112 -91 -197 -54 -86 -68 -116 -63 -135 11 -43 75 -164 112 -214 92
-120 254 -197 390 -186 49 4 57 2 81 -22 27 -26 27 -28 24 -142 -4 -130 10
-202 57 -305 37 -77 102 -174 160 -236 98 -105 296 -230 399 -252 36 -7 42 4
13 22 -26 16 -89 124 -112 193 -19 55 -42 213 -54 370 l-6 85 110 -3 c124 -5
198 13 285 69 51 32 146 117 146 130 0 4 -19 2 -41 -6 -55 -20 -147 -19 -206
1 -64 22 -111 56 -213 153 -53 51 -107 92 -142 109 -54 25 -59 31 -79 85 -13
33 -33 65 -46 74 -17 11 -23 25 -23 52 -1 153 -127 338 -284 415 -39 19 -79
37 -88 40 -9 2 -40 51 -68 108 -29 57 -53 104 -55 106 -2 2 -28 -30 -59 -70z
m126 -239 c166 -36 291 -160 325 -325 17 -84 12 -133 -17 -159 -20 -18 -20
-17 -20 21 0 70 -29 176 -62 232 -58 97 -204 189 -338 214 -52 10 -59 14 -40
19 39 11 94 10 152 -2z m59 -196 c-8 10 -11 20 -8 24 4 3 28 -15 53 -41 26
-25 44 -49 41 -53 -4 -3 -16 2 -27 12 -26 24 -26 11 1 -27 28 -39 17 -47 -21
-14 -40 33 -61 34 -23 1 15 -13 22 -25 16 -25 -7 0 -41 27 -75 60 -58 55 -58
69 0 32 32 -21 27 -3 -10 36 l-33 33 50 -27 c34 -19 46 -23 36 -11z m326 -143
c15 -65 16 -80 5 -80 -5 0 -16 35 -24 78 -9 42 -19 86 -23 97 -3 11 2 7 11
-10 10 -16 23 -55 31 -85z m-402 10 c83 -46 185 -120 164 -120 -21 0 -193 66
-223 85 -36 24 -27 29 17 10 21 -8 37 -13 37 -10 0 2 -28 23 -62 46 -49 32
-56 40 -33 34 17 -3 62 -24 100 -45z m-62 -187 c36 -18 89 -39 118 -46 44 -12
49 -15 28 -20 -93 -25 -189 15 -263 111 -49 61 -45 72 8 25 24 -21 73 -53 109
-70z m527 55 c0 -7 -16 -33 -35 -57 -48 -61 -46 -63 18 -18 30 21 44 18 30 -7
-12 -22 -130 -114 -177 -138 l-41 -20 25 27 25 27 -25 -7 -25 -8 20 23 20 23
-22 -12 c-58 -30 -41 -8 74 94 94 84 113 96 113 73z m-392 -211 c50 -8 72 -16
72 -26 0 -35 -199 20 -265 74 -29 23 -28 23 45 -6 41 -17 108 -36 148 -42z
m510 9 c20 -13 72 -52 114 -87 42 -35 87 -72 100 -81 22 -17 22 -17 -17 -6
-57 15 -104 42 -150 85 -109 105 -128 141 -47 89z m85 -165 l57 -46 -32 -3
c-36 -4 -105 20 -142 49 -43 34 -29 41 25 14 65 -34 81 -28 30 10 -48 36 -67
67 -24 40 16 -10 54 -39 86 -64z m-211 -168 c18 -46 36 -83 39 -83 4 0 9 27
13 60 11 98 32 59 61 -115 9 -49 23 -121 31 -158 9 -37 14 -71 10 -74 -6 -6
-15 14 -58 132 l-29 80 6 -60 c2 -33 7 -71 10 -85 l6 -25 -14 25 c-8 14 -27
63 -42 110 -16 47 -32 89 -37 95 -16 18 -7 -99 17 -210 5 -24 0 -19 -21 20
-37 68 -51 127 -64 264 -6 64 -15 132 -21 151 -29 112 29 31 93 -127z m137
121 c50 -25 106 -48 126 -51 19 -3 38 -10 41 -15 9 -14 -81 1 -142 23 -44 17
-142 87 -122 89 4 0 47 -21 97 -46z m-250 -132 c5 -37 13 -96 16 -132 3 -36 8
-78 11 -95 4 -25 0 -22 -22 20 -34 63 -64 151 -64 184 1 20 4 16 17 -19 8 -25
17 -47 20 -50 3 -3 2 35 -2 84 -8 105 8 111 24 8z"/>
<path d="M3830 2803 c0 -5 -23 -33 -51 -63 l-52 -55 32 -9 c45 -13 38 -40 -12
-44 -33 -3 -37 -6 -37 -31 0 -19 -19 -51 -60 -102 -33 -41 -58 -78 -56 -84 1
-5 33 -19 69 -29 53 -16 67 -24 67 -39 0 -17 -5 -19 -32 -14 l-33 5 2 -109 1
-109 62 -45 c33 -25 63 -52 66 -60 5 -13 -128 -185 -144 -185 -4 0 -20 11 -36
25 -33 28 -51 32 -42 9 3 -9 6 -40 6 -70 l0 -54 98 0 97 1 34 49 c18 28 37 50
42 50 5 0 24 -23 41 -50 l33 -50 100 2 100 3 3 68 c2 37 0 67 -5 67 -4 0 -21
-14 -39 -31 l-32 -31 -35 38 c-19 22 -56 66 -83 98 l-48 59 50 43 c27 24 56
46 64 49 12 4 15 26 15 120 0 63 -2 115 -5 114 -3 0 -14 -4 -25 -8 -19 -8 -45
3 -45 19 0 5 36 20 80 35 l80 27 -19 26 c-10 15 -40 54 -65 86 -25 33 -46 70
-46 82 0 19 -6 23 -37 26 -46 4 -53 24 -14 40 l30 13 -52 62 c-49 58 -67 73
-67 56z m34 -61 c15 -18 15 -20 -2 -40 -18 -21 -20 -21 -36 -4 -19 22 -20 34
-4 50 16 16 22 15 42 -6z m33 -195 c71 -99 71 -100 26 -121 -33 -15 -40 -24
-57 -76 -10 -33 -22 -60 -26 -60 -4 0 -16 28 -26 61 -17 54 -24 64 -54 76 -19
8 -37 17 -39 19 -5 5 110 174 118 174 3 0 29 -33 58 -73z m-87 -262 c12 -19
24 -35 27 -35 3 0 21 17 39 38 28 32 33 34 39 19 4 -9 4 -27 1 -40 -8 -30 -64
-90 -80 -84 -20 8 -89 114 -82 126 13 20 34 11 56 -24z"/>
<path d="M3817 2500 c-21 -46 -16 -60 22 -60 45 0 54 18 29 62 -12 21 -24 38
-27 38 -3 0 -14 -18 -24 -40z"/>
<path d="M3008 2762 c-49 -20 -88 -38 -88 -41 0 -3 9 -17 19 -31 l19 -24 96
38 c53 21 96 41 96 44 0 7 -45 52 -51 51 -2 0 -43 -17 -91 -37z"/>
<path d="M4547 2775 l-28 -25 38 -15 c21 -9 66 -28 101 -42 l64 -25 24 23 c13
12 24 25 24 29 0 7 -173 80 -187 80 -5 0 -20 -12 -36 -25z"/>
<path d="M3670 2726 c-54 -64 -65 -86 -45 -92 9 -3 45 40 103 123 41 59 0 37
-58 -31z"/>
<path d="M3940 2782 c0 -13 100 -147 110 -147 22 0 11 23 -41 87 -51 63 -69
79 -69 60z"/>
<path d="M2805 2648 c-134 -145 -1017 -1052 -1173 -1206 -41 -40 -73 -74 -71
-76 2 -2 47 3 99 10 182 24 222 16 169 -37 -11 -11 -19 -22 -17 -24 1 -2 42
-5 91 -6 l87 -4 0 188 c0 103 -3 187 -7 187 -3 0 -32 -28 -65 -62 -78 -84 -80
-131 -2 -72 50 38 43 9 -12 -48 -25 -27 -47 -48 -48 -48 -2 0 -9 14 -16 30 -7
17 -15 30 -18 30 -3 0 -29 -22 -58 -50 -48 -45 -74 -61 -74 -44 0 11 76 94
274 303 l51 54 7 -49 c9 -69 10 -462 1 -467 -5 -3 -37 1 -73 9 -84 17 -179 18
-184 1 -2 -6 -13 -64 -25 -127 -11 -63 -31 -150 -43 -192 l-23 -78 -50 -14
c-47 -14 -280 -66 -354 -80 -24 -4 -32 -3 -28 7 22 54 131 287 133 284 2 -2
-2 -23 -9 -47 -7 -25 -13 -52 -12 -60 1 -8 3 -28 3 -44 l2 -29 53 7 c28 4 82
14 118 22 l65 15 32 126 c18 69 30 128 28 130 -2 3 -47 0 -100 -6 -116 -13
-153 -14 -140 -2 5 4 52 13 104 19 53 7 110 14 128 18 29 6 32 4 32 -17 0 -13
-15 -82 -33 -154 l-33 -130 -90 -21 c-49 -12 -110 -24 -136 -28 -44 -7 -48 -5
-48 13 0 39 -18 30 -39 -21 -12 -28 -20 -53 -18 -55 4 -3 258 49 329 68 32 8
39 15 47 47 41 156 54 216 58 280 l6 73 -39 -6 c-21 -2 -93 -12 -159 -21 -66
-9 -125 -21 -131 -27 -26 -27 -226 -488 -216 -499 4 -3 39 0 77 8 106 20 143
15 50 -7 -141 -35 -153 -39 -159 -56 -4 -9 -5 -17 -4 -19 2 -1 65 12 139 31
128 32 184 51 311 109 29 13 70 31 90 39 42 17 37 5 98 252 33 135 39 150 60
153 32 5 38 -10 33 -91 l-5 -72 321 320 321 320 -37 3 c-21 1 -65 -1 -98 -5
-55 -7 -60 -10 -79 -45 -11 -21 -23 -38 -26 -38 -4 0 -6 21 -4 48 2 26 5 116
8 200 2 84 7 156 10 160 16 16 23 -28 25 -156 1 -75 3 -137 4 -138 1 0 56 4
123 10 113 10 154 23 154 47 0 5 -52 9 -115 9 l-115 0 0 150 0 151 68 -3 67
-3 3 -88 3 -88 117 6 c96 5 120 10 137 26 19 19 18 19 -88 19 l-107 0 0 85 0
84 -74 3 -74 3 24 28 c22 26 25 27 41 12 12 -12 30 -16 67 -13 l51 3 3 -85 3
-85 103 3 102 3 134 134 133 134 -41 63 c-46 70 -50 83 -27 92 8 3 15 10 15
16 0 11 -32 13 -79 4 -26 -6 -31 -11 -31 -35 0 -34 -21 -57 -84 -94 -43 -25
-52 -27 -133 -22 -65 4 -95 1 -115 -9 -41 -21 -34 -34 17 -35 25 -1 50 -3 55
-4 6 -1 19 -3 30 -4 11 0 19 -4 19 -8 -1 -5 -1 -37 0 -73 l1 -64 35 54 c19 30
35 57 35 61 0 4 24 19 53 34 28 15 59 33 68 41 8 8 20 14 25 14 5 0 -22 -31
-61 -68 -38 -37 -87 -93 -108 -125 -29 -44 -44 -57 -62 -57 -24 0 -25 2 -25
80 l0 79 -92 3 -93 3 151 160 c83 88 172 184 199 213 l48 52 27 -32 c16 -19
29 -27 33 -21 6 10 -54 94 -72 101 -4 1 -29 -21 -56 -50z m-586 -868 c-5 -74
-16 -180 -24 -234 -8 -55 -15 -106 -15 -114 0 -13 -73 -92 -85 -92 -3 0 -3 17
-1 38 2 20 10 121 17 225 7 103 16 187 21 187 4 0 8 -73 9 -162 0 -93 4 -154
8 -143 5 11 18 99 30 195 29 234 32 253 41 243 4 -4 3 -69 -1 -143z m-269
-368 c0 -26 -25 -5 -28 24 -2 28 -2 28 13 10 8 -11 15 -26 15 -34z m-354 -289
c-4 -16 -16 -58 -27 -95 l-19 -66 -78 -14 c-42 -8 -79 -14 -80 -12 -6 4 39
178 48 188 7 7 53 15 149 25 9 1 11 -6 7 -26z"/>
<path d="M1453 1108 c-6 -7 -16 -35 -23 -63 -6 -27 -14 -59 -17 -69 -5 -18 -1
-19 48 -13 29 4 58 12 65 19 10 11 44 113 44 132 0 12 -108 6 -117 -6z m56
-35 c-6 -10 -22 -26 -35 -36 -21 -15 -24 -16 -24 -2 0 27 24 55 47 55 20 0 21
-3 12 -17z"/>
<path d="M3374 2639 c-21 -22 -76 -65 -122 -95 -92 -61 -92 -59 -18 -112 43
-31 45 -32 58 -13 38 54 172 190 190 193 17 3 14 8 -24 35 l-45 32 -39 -40z"/>
<path d="M4264 2669 c-3 -5 -22 -18 -42 -28 -34 -18 -35 -20 -17 -28 20 -8
127 -118 175 -180 l25 -32 58 44 58 43 -88 60 c-48 33 -105 76 -126 95 -20 19
-40 31 -43 26z"/>
<path d="M2760 2479 c-58 -62 -106 -116 -108 -120 -2 -5 33 -9 78 -9 100 0
140 21 140 73 0 18 4 37 8 43 4 6 42 17 85 24 42 8 77 17 77 21 0 14 -66 34
-108 32 -37 -1 -43 2 -48 23 -3 13 -9 24 -13 24 -3 0 -53 -50 -111 -111z"/>
<path d="M3455 2507 c-16 -23 -45 -59 -63 -79 -39 -43 -38 -63 5 -131 l26 -41
-54 -48 c-30 -26 -62 -50 -71 -53 -10 -4 -22 -24 -29 -48 -6 -23 -22 -62 -36
-85 -21 -37 -22 -42 -6 -34 19 11 363 330 363 337 0 3 -16 23 -36 44 l-35 40
35 53 c20 29 36 56 36 59 0 6 -78 29 -97 29 -4 0 -21 -19 -38 -43z"/>
<path d="M4135 2538 c-22 -6 -41 -12 -43 -13 -1 -1 13 -26 33 -55 19 -28 35
-55 35 -59 0 -4 -16 -22 -35 -40 -19 -17 -35 -37 -35 -44 0 -18 345 -337 365
-337 2 0 -7 16 -20 37 -14 20 -28 53 -31 74 -5 31 -17 46 -75 91 -38 29 -69
56 -69 59 0 4 16 33 35 65 19 32 35 61 35 64 0 15 -132 170 -143 169 -7 -1
-30 -6 -52 -11z"/>
<path d="M4642 2508 c-14 -14 -16 -28 -3 -28 9 0 24 30 18 36 -2 2 -9 -2 -15
-8z"/>
<path d="M3074 2445 l-22 -33 74 -113 c41 -63 77 -122 80 -131 5 -16 10 -15
47 12 23 16 57 42 75 57 l33 29 -28 24 c-15 14 -46 39 -68 55 -22 16 -62 48
-90 70 -84 68 -78 66 -101 30z"/>
<path d="M4460 2379 c-63 -49 -121 -96 -128 -103 -11 -11 -2 -23 59 -68 l72
-55 27 51 c14 28 50 85 78 126 50 72 62 100 43 100 -5 0 -13 9 -16 20 -3 11
-9 20 -13 20 -4 -1 -59 -41 -122 -91z"/>
<path d="M2076 2451 c-8 -12 31 -44 44 -36 8 5 6 13 -6 26 -19 21 -30 24 -38
10z"/>
<path d="M5590 2445 c-7 -9 -10 -18 -7 -21 10 -10 47 7 47 22 0 19 -24 18 -40
-1z"/>
<path d="M1768 2151 c-142 -141 -258 -262 -258 -267 0 -7 19 -8 58 -2 31 4
109 7 172 7 l115 -1 3 138 3 139 106 107 c92 92 105 109 94 122 -8 9 -19 16
-25 15 -6 0 -127 -116 -268 -258z"/>
<path d="M5639 2394 c-12 -14 0 -29 94 -118 l106 -102 3 -145 3 -144 150 3
c89 2 161 -1 178 -7 15 -6 27 -9 27 -6 0 14 -522 535 -536 535 -6 0 -18 -7
-25 -16z"/>
<path d="M3570 2135 c0 -9 -7 -30 -16 -47 -11 -22 -14 -43 -9 -74 5 -35 14
-49 52 -80 l46 -37 43 49 c24 27 43 53 44 57 0 4 -29 26 -65 49 -55 35 -65 46
-65 70 0 18 -5 28 -15 28 -8 0 -15 -7 -15 -15z"/>
<path d="M4090 2115 c0 -19 -4 -35 -8 -35 -4 0 -33 -16 -65 -36 l-57 -36 46
-59 c25 -32 47 -59 49 -59 2 0 25 20 50 44 42 41 45 48 45 95 0 27 -4 52 -9
56 -5 3 -12 19 -16 35 -9 43 -35 39 -35 -5z"/>
<path d="M2400 1945 l0 -117 122 7 c88 5 129 12 145 24 12 9 23 19 23 24 0 4
-52 7 -115 7 l-114 0 -3 83 c-3 81 -3 82 -30 85 l-28 3 0 -116z"/>
<path d="M3309 1858 c-19 -24 -103 -123 -187 -221 -87 -102 -147 -179 -140
-182 7 -2 69 -8 137 -14 l124 -12 69 73 c49 52 67 79 63 93 -2 11 -9 83 -16
160 -6 77 -12 141 -14 143 -1 2 -18 -16 -36 -40z"/>
<path d="M4357 1798 c-4 -57 -10 -131 -13 -164 l-7 -61 70 -73 70 -73 84 11
c46 7 100 12 119 12 19 0 41 4 48 8 8 6 -35 63 -145 193 -87 101 -170 199
-185 217 -15 17 -29 32 -31 32 -2 0 -7 -46 -10 -102z"/>
<path d="M3803 1686 c-24 -40 -43 -76 -43 -80 0 -11 83 -126 91 -126 9 0 89
116 89 129 0 13 -82 151 -90 151 -3 0 -24 -33 -47 -74z"/>
<path d="M3638 1691 c-55 -6 -57 -7 -119 -81 -34 -41 -134 -157 -222 -258
l-160 -183 -22 21 c-21 20 -36 21 -219 24 -108 1 -196 -1 -196 -5 0 -4 75 -92
166 -196 91 -103 222 -252 291 -330 69 -79 129 -143 132 -143 3 0 7 33 8 73 2
39 8 151 14 247 13 200 24 235 95 276 100 59 215 -2 214 -113 -1 -44 -35 -109
-69 -129 -25 -15 -31 -25 -31 -51 0 -45 -21 -92 -60 -136 l-32 -37 66 -89 c37
-49 74 -95 83 -102 14 -12 15 -11 8 11 -4 14 -21 56 -37 93 -28 64 -33 96 -16
100 9 2 198 -306 192 -312 -2 -2 -29 11 -60 28 -31 18 -55 29 -53 24 15 -33
243 -361 250 -358 15 10 248 365 239 365 -5 0 -12 -5 -15 -10 -9 -14 -86 -53
-92 -46 -3 3 37 75 88 161 83 137 95 153 107 138 7 -10 10 -22 8 -28 -26 -57
-66 -159 -66 -168 0 -5 13 8 30 29 16 21 52 68 80 104 l50 65 -28 26 c-49 44
-62 70 -62 124 0 45 -3 52 -29 67 -39 22 -63 60 -68 111 -9 81 34 141 110 154
48 7 79 -2 117 -33 56 -48 60 -67 77 -333 9 -135 17 -247 18 -249 3 -4 31 24
95 94 136 149 252 276 305 334 33 36 92 101 130 145 39 44 73 82 78 83 28 13
-19 17 -199 16 -206 0 -207 0 -226 -24 l-20 -25 -36 41 c-21 22 -104 115 -186
208 -82 92 -154 173 -160 179 -6 7 -28 33 -49 60 l-38 47 -85 0 -85 0 21 -38
c16 -29 38 -47 87 -71 63 -31 64 -32 50 -54 -8 -12 -36 -55 -62 -95 -46 -71
-47 -73 -62 -52 -14 19 -12 25 26 75 56 74 58 83 26 95 -14 5 -30 10 -35 10
-12 0 -130 -160 -130 -176 0 -8 11 -36 24 -63 25 -48 25 -48 87 -55 33 -4 59
-10 56 -13 -3 -3 -36 -12 -74 -21 l-68 -17 -3 -50 c-5 -101 -33 -419 -36 -422
-6 -6 -15 71 -26 212 -5 72 -13 160 -16 197 l-6 66 -64 13 c-35 7 -64 16 -64
20 0 5 17 11 38 14 64 11 67 14 95 70 l27 56 -62 82 c-34 45 -63 84 -64 86 -4
5 -46 -7 -63 -18 -11 -7 -10 -15 9 -42 13 -19 34 -46 48 -61 23 -25 24 -68 1
-68 -5 0 -34 38 -65 85 -64 95 -64 96 14 135 46 23 98 81 85 94 -7 6 -14 6
-105 -3z"/>
</g>
</svg>
